P3
50 50
255
194 211 218 196 213 220 196 213 220 198 213 220 199 214 221 200 215 220 200 215 220 199 217 221 199 217 221 200 218 222 204 219 224 204 219 224 205 218 224 205 218 224 205 218 224 205 218 224 205 218 224 206 219 225 206 219 225 207 220 226 208 221 227 208 221 227 209 222 228 210 224 227 211 225 228 211 225 228 211 225 228 212 226 229 215 226 230 216 227 231 216 227 231 218 227 232 218 227 232 219 228 233 221 230 235 221 231 233 222 232 234 223 233 235 224 234 236 226 236 238 227 237 239 228 236 239 228 236 239 231 236 240 233 238 242 233 238 242 234 239 242 235 240 243 236 241 244 237 242 245 194 211 218 195 212 219 196 213 220 198 213 220 198 213 220 199 214 219 200 215 220 199 217 221 199 217 221 199 217 221 202 217 222 203 218 223 204 217 223 204 219 224 205 218 224 205 218 224 205 218 224 205 218 224 206 219 225 206 219 225 207 220 226 208 221 227 209 222 228 210 224 227 210 224 227 211 225 228 211 225 228 212 226 229 214 225 229 215 226 230 216 227 231 216 227 231 217 226 231 218 227 232 220 229 234 221 231 233 221 231 233 223 233 235 224 234 236 225 235 237 226 236 238 227 235 238 228 236 239 231 236 240 232 237 241 233 238 242 234 239 242 234 239 242 235 240 243 236 241 244 194 211 218 195 212 219 195 212 219 196 213 220 196 213 220 199 214 219 199 214 219 198 216 220 199 217 221 199 217 221 199 217 221 202 217 222 202 217 222 204 219 224 204 219 224 204 219 224 204 219 224 204 219 224 205 218 224 206 219 225 206 219 225 207 220 226 207 220 226 208 222 225 209 223 226 210 224 227 210 224 227 211 225 228 214 225 229 212 226 229 215 226 230 215 226 230 215 226 230 217 226 231 219 228 233 220 229 234 221 230 235 222 232 234 223 233 235 224 234 236 225 235 237 226 236 238 227 235 238 228 236 239 230 238 241 232 237 241 233 238 241 233 238 241 234 239 242 235 240 243 194 211 218 194 211 218 195 212 219 196 213 220 196 213 220 196 213 220 196 213 220 197 214 221 198 216 220 198 216 220 198 216 220 199 217 221 199 217 221 202 217 222 202 217 222 203 218 223 203 218 223 203 218 223 203 218 223 204 219 224 206 219 225 206 219 225 206 219 225 207 221 224 208 222 225 208 222 225 209 223 226 210 224 227 212 223 227 211 225 228 212 226 229 212 226 229 214 225 229 216 227 231 218 227 232 219 228 233 219 228 233 220 230 232 221 231 233 222 232 234 224 234 236 225 235 237 225 235 237 226 236 238 228 238 240 228 236 239 229 237 239 229 237 239 230 238 240 231 239 242 192 211 217 193 210 217 194 211 218 195 212 219 195 212 219 195 212 219 195 212 219 196 213 220 197 214 221 197 215 219 197 215 219 198 216 220 198 216 220 200 215 220 200 215 220 201 216 221 201 216 221 201 216 221 201 216 221 202 217 222 204 219 224 205 218 224 206 219 225 206 220 223 206 220 223 207 221 224 207 221 224 208 222 225 211 222 226 210 224 227 211 225 228 211 225 228 214 225 229 215 226 230 216 227 231 217 228 232 217 228 232 219 227 230 219 229 231 221 231 233 222 232 234 223 233 235 223 233 235 224 234 236 226 236 238 226 236 238 227 237 239 228 236 238 229 237 239 229 237 240 193 212 218 192 211 217 195 212 219 198 213 220 196 213 220 196 213 220 198 213 220 196 213 220 198 213 220 199 214 219 199 212 218 200 213 219 202 213 219 198 212 213 198 213 216 198 213 216 197 215 217 196 214 216 199 214 217 200 215 218 202 216 219 203 217 218 203 218 221 203 217 220 204 218 221 205 219 222 205 219 222 208 219 223 207 218 222 208 221 227 210 221 227 212 223 227 212 223 227 214 223 228 217 226 231 216 227 233 215 226 228 217 226 233 217 228 232 219 228 235 221 228 234 221 230 237 221 230 235 222 232 234 224 234 233 225 235 237 226 236 238 226 238 238 226 238 238 227 237 239 197 212 217 194 213 219 195 214 220 196 213 221 196 213 221 196 213 221 197 214 222 199 216 223 199 217 219 197 217 216 197 217 218 198 218 219 199 218 222 197 216 220 199 217 221 202 217 224 202 215 223 202 215 221 202 215 221 202 217 222 202 217 224 202 217 220 204 218 221 204 218 221 207 218 222 209 218 223 208 219 223 206 221 224 206 220 223 208 222 223 207 223 223 208 224 224 209 225 224 212 226 229 216 225 230 216 226 228 216 227 231 218 229 233 219 228 233 220 228 230 221 229 232 222 230 233 223 231 234 224 232 234 224 233 232 225 235 236 225 235 237 226 236 238 227 237 239 227 235 238 191 211 218 192 211 217 192 211 217 191 211 218 193 212 219 193 212 219 194 211 218 191 212 217 197 211 220 196 213 221 197 211 220 196 213 221 199 213 222 199 214 221 200 215 222 198 215 222 198 215 222 198 215 222 198 216 220 198 216 220 198 216 220 196 215 219 197 215 219 200 215 220 200 215 220 201 216 221 201 216 221 201 216 221 202 217 222 201 218 225 204 219 224 204 219 226 203 220 227 203 222 229 206 221 228 208 221 227 210 223 231 210 220 229 211 221 230 210 224 224 215 226 228 217 227 229 218 227 232 215 228 234 213 228 233 216 230 231 217 232 235 220 234 235 222 233 235 222 232 233 156 190 199 154 188 197 150 187 195 149 186 194 150 187 195 150 187 193 151 186 190 148 185 191 149 183 192 148 185 194 154 188 197 156 186 194 158 185 192 156 183 190 157 184 193 156 184 195 157 185 196 156 186 194 156 186 194 154 187 194 154 187 196 157 185 196 158 185 196 158 185 196 158 186 197 156 186 196 156 186 196 153 186 195 151 188 194 152 186 195 155 185 196 158 186 198 159 189 200 161 191 199 161 192 195 162 193 198 162 193 198 169 191 204 166 193 202 164 197 204 165 198 205 169 195 208 172 196 206 174 198 208 174 199 206 174 199 204 177 202 207 178 203 208 179 202 208 180 203 209 82 122 130 81 121 131 81 119 132 82 120 133 82 120 133 80 120 132 79 119 131 79 115 127 77 121 130 78 122 131 80 123 132 83 123 135 85 123 136 84 122 135 85 123 136 87 123 137 88 124 140 89 125 141 89 126 142 87 129 143 87 129 141 88 130 144 87 129 143 88 130 144 89 131 145 87 131 144 87 131 144 87 129 143 88 132 143 90 134 145 90 134 147 91 135 148 93 135 147 97 129 140 96 123 134 95 123 135 92 126 135 95 128 143 96 130 140 96 130 142 95 131 143 98 134 148 102 136 148 105 137 148 103 140 149 102 139 148 104 142 153 104 144 156 103 142 157 104 143 158 87 117 125 89 118 126 91 118 127 91 121 131 92 122 132 92 122 130 91 118 127 91 116 121 95 111 111 93 109 106 96 112 112 98 119 122 100 128 129 105 136 141 105 138 145 106 139 148 104 138 148 107 140 149 112 142 153 115 143 155 114 142 156 114 144 154 112 145 152 108 145 151 106 145 152 104 143 150 99 143 146 98 143 146 102 143 147 106 144 153 106 146 156 107 147 157 110 147 155 113 137 147 108 121 130 102 113 115 96 115 111 98 118 117 104 119 116 110 116 116 110 121 123 107 131 131 107 138 141 107 141 143 106 140 149 101 138 147 99 137 150 97 137 149 94 136 148 95 133 144 201 216 223 199 218 222 198 219 222 198 219 222 194 220 219 191 217 216 189 210 211 185 205 204 198 199 201 200 202 201 200 204 205 201 211 212 202 218 217 198 222 222 199 223 223 199 223 223 199 223 223 199 223 225 202 223 226 203 222 226 204 222 226 211 222 228 209 223 226 204 222 224 200 221 224 192 220 221 185 220 216 181 222 216 181 222 216 191 220 226 193 221 225 193 221 224 195 224 222 200 221 222 198 212 215 195 205 206 189 203 203 185 204 202 192 203 199 194 198 197 193 201 203 196 212 212 196 218 216 197 216 214 200 214 215 196 216 217 194 213 217 192 213 216 192 213 216 187 211 213 219 233 236 221 232 236 222 231 236 223 232 239 218 233 238 218 232 235 220 232 232 225 230 233 221 232 236 220 233 239 221 232 238 221 232 236 221 230 235 218 232 233 218 232 233 218 232 235 217 231 234 214 229 232 208 228 229 204 228 228 203 229 228 206 230 232 208 232 234 210 231 234 209 233 235 208 232 234 209 228 232 212 230 234 210 231 232 214 228 231 218 226 228 216 224 226 213 225 225 212 226 226 212 227 224 212 228 228 208 226 226 208 226 226 216 226 227 212 222 221 208 222 222 212 226 226 215 226 220 215 220 214 215 218 211 216 216 208 212 212 204 213 213 205 215 217 214 208 222 222 217 231 232 215 230 235 215 230 235 217 229 229 214 228 228 214 227 233 216 226 235 216 227 233 218 221 230 219 224 227 212 230 230 213 227 227 215 223 226 212 226 226 211 222 218 205 214 209 199 218 212 207 221 224 195 226 218 187 225 214 194 225 227 196 227 229 201 226 231 203 227 231 205 226 229 204 226 224 206 225 219 203 220 212 197 214 206 196 206 195 199 196 181 208 190 178 211 195 182 207 195 181 206 188 174 207 195 171 208 200 189 213 202 184 211 186 164 205 171 143 196 166 140 207 178 164 209 186 168 211 187 175 210 191 184 208 198 188 209 202 192 209 196 188 212 195 185 207 201 185 197 207 206 204 206 203 205 205 197 207 203 192 209 203 189 214 205 190 210 204 190 207 200 182 210 195 172 207 200 182 201 222 207 200 229 227 203 224 229 204 220 209 200 208 187 185 186 168 195 201 187 217 219 214 205 228 220 201 231 229 202 227 234 205 231 230 216 227 231 214 228 231 216 232 232 214 232 236 213 231 235 212 231 237 213 228 231 207 227 228 212 216 219 216 213 208 215 211 208 213 209 197 208 201 183 211 193 171 211 195 172 212 196 163 209 175 147 205 144 100 205 146 106 213 152 133 210 161 144 209 167 153 207 176 171 206 187 183 207 190 182 208 181 174 206 172 162 205 163 139 163 176 166 171 175 161 176 173 156 187 178 161 202 187 168 208 197 179 211 200 180 207 199 178 208 200 179 209 207 192 209 227 213 207 233 230 206 230 234 208 235 230 209 228 224 203 221 221 206 224 210 204 227 217 197 229 218 199 227 213 207 228 223 211 238 229 213 232 228 214 225 219 215 214 210 220 211 206 223 213 201 217 212 193 212 206 194 183 200 194 184 196 186 211 189 165 220 177 158 210 183 166 200 203 186 201 209 194 204 206 185 215 192 174 204 167 149 194 147 127 203 190 171 214 202 186 214 193 164 213 180 149 216 168 128 218 162 115 214 161 111 211 157 113 209 157 110 212 157 101 203 222 218 200 219 215 207 222 217 214 225 221 219 228 225 218 232 233 220 236 235 219 238 236 217 233 230 213 229 226 210 235 231 214 236 234 214 235 230 207 226 220 196 213 205 192 208 205 207 229 208 184 222 199 166 211 188 187 219 204 210 230 219 207 218 202 204 206 192 203 194 179 197 180 164 200 174 157 204 180 156 197 178 148 183 175 152 147 165 153 136 154 132 197 121 85 227 92 34 217 114 56 218 152 104 218 180 143 213 182 138 222 166 109 221 138 70 213 128 61 217 160 91 221 152 83 220 134 59 221 121 45 221 105 20 219 95 5 219 96 2 215 105 10 219 116 21 222 127 33 229 238 245 229 238 247 230 239 246 233 238 242 231 236 240 224 238 241 215 237 235 210 229 227 211 221 213 216 218 215 215 229 229 220 233 239 222 236 237 221 234 227 213 221 208 208 209 177 211 219 182 182 213 198 174 213 210 190 211 202 173 185 173 156 157 152 176 173 166 194 195 190 196 203 196 198 205 198 200 210 202 192 193 187 171 175 161 172 193 178 183 194 186 206 155 124 219 90 22 226 90 4 225 117 29 226 135 64 226 147 80 223 154 89 214 137 59 218 114 25 225 108 3 224 99 6 221 98 4 218 93 3 221 86 4 219 88 8 223 86 5 224 94 6 222 101 10 220 110 23 235 238 245 232 239 245 231 238 244 230 235 239 230 235 239 228 237 242 229 241 241 231 239 241 231 237 237 235 235 237 230 238 240 230 238 240 232 241 238 221 229 218 207 201 187 207 198 167 219 213 189 214 235 230 197 226 224 157 169 165 144 149 152 176 179 184 206 210 213 216 227 229 211 230 228 210 231 226 222 236 236 221 227 225 189 197 186 156 173 157 198 206 183 220 198 159 220 125 81 227 83 23 222 133 77 211 196 157 226 219 203 219 225 213 184 194 169 173 136 91 215 93 8 228 83 2 227 88 3 224 90 1 228 95 2 227 93 4 225 91 4 223 93 9 220 100 13 222 112 25 220 236 235 222 236 239 230 238 241 235 239 242 237 237 245 231 238 244 233 238 242 237 237 245 235 240 246 235 238 245 229 238 245 224 242 244 222 234 230 206 203 184 182 177 157 194 182 166 212 166 132 233 212 191 197 222 218 158 189 184 190 205 202 222 223 227 227 234 242 229 238 243 230 239 244 231 236 239 231 236 239 228 238 237 212 225 218 150 170 169 161 180 161 212 224 210 218 221 214 226 180 154 222 192 168 193 229 215 223 239 239 224 231 223 191 194 173 155 148 120 201 114 45 224 92 7 223 93 5 225 102 9 219 107 9 225 108 15 223 109 21 222 112 33 222 114 39 224 121 44 192 233 227 211 240 248 230 241 245 237 238 240 232 239 245 235 236 241 235 241 241 235 240 246 231 241 242 237 240 247 233 237 240 221 241 239 216 224 211 213 191 168 193 191 178 193 185 162 207 157 130 222 200 186 174 218 201 188 224 214 215 232 226 219 230 224 230 231 233 236 226 227 227 224 215 231 216 211 232 218 218 224 226 223 215 223 208 158 175 165 138 162 148 199 217 219 233 242 251 227 242 245 198 226 214 200 224 210 226 221 215 229 208 187 222 180 156 181 163 151 183 164 149 214 152 115 221 156 118 226 161 121 225 160 120 225 172 140 224 175 142 221 156 114 224 141 97 223 142 79 216 216 180 230 227 182 234 242 218 231 238 246 232 239 245 237 241 244 234 238 249 231 240 249 231 245 245 232 235 224 223 245 233 221 234 240 202 188 179 191 179 163 194 193 199 180 190 191 175 182 174 187 206 187 138 168 166 169 187 191 212 232 223 211 232 223 223 224 216 232 214 212 223 215 212 222 218 206 231 218 201 227 213 186 215 203 177 157 163 159 148 164 161 200 220 218 236 225 219 221 207 181 192 210 194 199 192 182 209 192 185 211 201 192 197 188 179 202 205 198 223 230 223 222 214 212 228 200 199 225 179 164 212 171 141 219 212 202 233 188 169 228 134 70 221 155 61 222 147 28 232 176 83 237 169 68 237 225 177 234 245 249 231 240 247 233 243 235 238 237 243 236 244 246 237 238 232 233 220 185 227 232 212 216 229 245 190 194 197 203 203 203 218 223 227 201 212 208 174 185 181 186 198 188 164 191 184 158 193 187 196 224 209 208 221 212 217 215 194 231 226 207 233 232 237 236 235 233 231 207 173 220 139 94 200 147 115 169 178 161 186 191 194 218 232 209 233 177 92 225 129 55 202 192 165 162 165 156 181 178 163 195 184 180 185 186 178 185 187 174 216 189 172 221 165 130 219 141 92 210 129 66 170 131 92 156 156 144 177 163 152 198 169 127 218 191 112 225 171 47 239 186 132 237 155 81 234 199 145 237 235 212 237 237 235 234 240 240 237 242 235 239 229 202 233 192 138 226 172 110 220 204 171 212 231 225 210 236 225 223 236 227 224 220 208 200 192 179 178 185 169 199 206 198 211 234 226 198 229 223 219 237 237 221 226 222 218 223 219 222 230 219 231 213 201 236 194 169 225 176 143 187 156 125 154 138 112 172 127 96 230 179 136 227 174 80 224 100 2 219 112 58 195 192 177 187 199 189 214 177 151 218 163 124 210 165 134 169 163 151 170 149 122 215 127 53 217 119 44 179 139 87 146 151 128 130 146 133 134 151 141 151 168 160 176 177 159 205 171 123 225 194 163 217 166 123 208 189 147 220 220 182 234 237 218 231 242 238 231 240 235 237 233 224 236 198 136 228 149 70 217 186 140 198 220 217 206 224 226 227 238 230 227 227 217 215 199 184 195 178 162 195 211 198 226 239 230 228 238 239 230 239 248 236 234 237 233 238 241 229 241 241 232 236 237 231 230 225 229 222 206 204 193 165 185 140 107 208 120 82 228 135 78 229 130 71 229 135 101 223 186 168 173 183 174 186 180 164 221 189 174 231 209 186 230 189 167 180 173 155 161 159 146 189 152 107 191 154 109 173 158 137 158 161 150 160 171 163 166 181 174 188 201 191 208 215 207 204 209 202 203 161 121 196 146 109 206 190 165 213 222 203 224 225 219 236 235 231 234 243 242 227 243 243 236 232 205 242 196 137 232 211 164 206 229 219 199 226 219 217 227 218 226 223 208 215 198 182 199 163 149 211 205 193 227 227 217 222 209 192 218 200 186 217 227 219 227 240 231 229 231 218 233 224 225 235 210 190 231 173 125 233 160 125 227 190 171 221 190 162 221 195 182 223 212 194 216 213 198 210 183 162 156 155 137 165 178 169 220 223 216 229 225 224 226 198 177 182 165 139 191 195 196 215 224 221 216 227 221 216 221 217 201 213 213 196 210 197 209 211 198 223 202 185 223 169 125 218 139 82 215 186 154 205 168 123 192 164 125 164 164 136 175 188 170 219 227 216 224 245 238 225 241 240 234 243 250 234 246 242 231 240 213 235 229 203 229 235 225 221 235 235 228 236 221 214 216 192 198 181 161 221 188 173 232 204 190 232 192 180 234 190 177 218 219 213 216 221 215 215 183 172 220 184 168 221 189 168 222 156 134 219 161 141 217 181 167 201 191 179 204 207 190 210 192 178 200 165 143 195 162 143 199 202 191 215 233 237 223 230 222 229 216 197 206 182 146 166 150 114 186 182 173 190 202 200 187 204 196 194 202 191 192 186 162 200 147 113 209 106 73 196 76 42 208 69 26 215 42 2 226 200 165 216 186 148 188 173 144 145 148 129 143 160 144 187 209 197 214 235 226 220 245 239 227 242 239 236 225 207 238 177 122 230 131 64 213 148 110 224 187 171 226 201 179 231 208 194 222 204 194 227 210 202 234 223 219 234 232 233 229 237 239 232 241 240 221 227 227 222 202 204 216 202 199 216 219 208 219 205 202 218 208 209 207 204 197 200 203 194 208 209 191 204 192 170 217 190 179 208 195 187 203 213 202 221 235 236 231 235 238 230 231 225 226 222 213 213 212 207 191 197 193 165 177 175 144 161 155 141 155 142 198 153 111 223 73 23 199 8 0 177 0 0 186 9 1 209 30 0 232 233 225 234 223 201 226 207 177 202 187 168 174 172 157 165 173 158 187 194 178 212 204 183 222 205 179 225 180 141 231 150 97 234 141 98 230 169 150 230 197 192 231 207 203 238 224 223 239 233 233 237 240 245 229 244 247 229 243 246 231 242 244 234 238 247 231 244 253 232 245 254 241 242 247 234 239 242 233 246 254 236 245 250 223 231 233 210 219 218 227 222 218 217 208 201 222 223 217 203 210 202 202 204 201 219 224 218 229 235 235 226 231 235 229 238 243 236 245 254 231 242 244 219 230 232 203 215 213 189 199 201 185 188 171 196 124 84 206 75 23 197 64 33 188 55 46 203 33 0 209 221 219 232 243 235 224 231 223 232 234 229 233 237 238 221 230 229 220 224 223 232 227 221 237 230 222 239 228 226 232 226 226 219 223 224 218 224 220 235 235 235 238 241 246 232 242 243 234 244 245 233 243 242 235 241 241 239 240 245 238 239 244 239 238 246 234 236 235 226 231 224 213 219 215 215 220 223 216 226 227 210 229 223 230 240 239 229 239 241 227 232 235 231 235 238 232 237 240 231 236 240 228 235 241 227 239 239 219 234 231 194 205 199 174 185 179 175 186 178 180 195 188 186 203 195 199 213 213 214 228 228 199 221 219 181 185 171 191 160 129 200 170 142 203 169 157 212 146 132 220 232 228 228 237 236 233 236 241 240 243 250 240 243 250 238 243 246 233 242 241 234 242 245 233 242 241 237 243 239 218 226 229 207 221 222 217 228 220 227 229 226 235 238 243 238 241 246 238 243 247 237 242 246 236 241 244 238 242 245 235 241 241 220 228 230 210 214 213 217 213 210 184 190 190 209 216 222 218 222 225 191 206 201 220 225 228 239 239 249 238 242 251 233 238 244 236 239 244 233 241 243 230 240 239 234 239 242 230 231 235 202 212 211 169 186 178 160 181 174 176 197 192 186 208 205 198 223 217 217 233 232 223 238 243 221 224 231 212 218 214 211 224 215 218 222 223 224 235 231 236 241 245 232 241 240 233 243 242 234 242 244 235 244 243 244 244 246 240 241 246 236 241 245 231 233 228 224 236 226 204 220 219 209 221 217 223 217 203 198 200 186 204 215 207 209 222 213 212 225 218 212 221 218 207 216 213 196 208 204 188 202 189 171 185 172 187 204 196 235 232 227 202 203 195 217 229 225 223 231 234 193 204 200 209 212 203 224 225 217 229 230 224 228 232 231 223 232 231 211 221 220 205 214 213 196 207 201 170 181 175 152 178 167 169 199 191 208 230 227 225 239 242 230 237 245 230 238 241 229 236 244 227 239 239 230 239 238 234 240 238 226 240 241 224 233 240 225 239 239 241 245 246 238 243 247 227 237 236 213 225 215 212 221 216 221 225 228 235 236 240 235 240 236 234 236 233 228 237 232 228 233 227 228 233 227 231 223 221 206 216 207 188 204 193 174 190 180 173 186 176 174 188 175 165 181 170 148 165 155 140 156 143 148 164 154 198 210 198 228 210 198 207 196 178 213 224 208 216 226 215 206 217 201 204 207 188 206 204 189 209 210 196 203 207 192 190 198 187 174 184 176 158 169 163 132 152 143 125 147 134 125 152 137 156 184 170 203 229 220 220 238 238 229 240 242 230 238 241 237 238 240 232 238 236 224 231 239 209 227 227 211 231 229 224 238 239 227 236 241 229 235 221 238 239 234 236 238 235 225 235 227 217 225 227 211 217 217 211 220 217 213 224 216 221 227 217 223 225 214 229 230 222 231 233 228 235 237 232 236 240 226 215 224 205 188 201 194 170 186 183 173 188 183 184 195 189 182 192 183 180 189 184 192 202 194 220 224 207 229 222 204 217 213 201 209 212 203 205 208 201 205 210 203 215 220 216 228 230 229 224 230 226 216 221 215 214 216 213 212 217 213 204 213 208 187 196 193 175 184 181 166 179 172 166 186 177 186 209 201 191 213 211 190 210 209 194 215 210 193 212 208 182 202 200 175 199 203 179 207 208 203 227 227 220 238 240 215 231 230 205 206 192 214 216 203 224 227 216 227 232 225 228 231 224 225 230 223 221 224 213 219 223 209 218 219 201 223 222 202 228 230 217 234 235 227 239 241 230 238 241 234 234 237 230 223 229 227 216 225 224 219 224 227 225 230 233 229 234 230 232 236 235 237 239 236 237 238 232 230 237 230 228 232 231 224 228 229 225 230 233 229 233 236 232 237 240 231 237 235 221 227 223 210 214 213 200 206 204 198 204 202 194 203 200 189 200 194 183 195 191 185 200 195 192 213 204 192 217 213 189 212 206 190 210 208 190 212 209 191 212 207 188 210 207 196 216 215 210 228 228 206 226 225 181 201 199 164 184 182 157 163 151 168 174 164 178 181 170 184 190 176 193 199 185 200 207 191 211 214 203 220 223 214 228 228 216 230 232 221 235 240 236 241 242 244 238 241 246 237 242 246 241 246 250 239 245 245 240 244 247 242 241 249 239 242 247 237 245 248 236 244 246 233 240 246 233 243 245 236 241 245 235 240 244 235 240 244 232 237 241 223 228 232 207 212 215 183 192 189 164 170 168 155 165 157 157 168 162 164 173 170 171 181 180 169 183 183 174 188 188 176 190 190 194 210 207 204 223 221 211 230 228 212 230 232 211 233 231 211 231 230 214 234 232 208 224 223 199 215 212 190 201 197 175 187 183 164 179 174 136 156 144 135 151 141 139 156 146 144 162 148 151 163 149 161 173 159 189 199 191 219 228 225 237 241 242 236 240 243 236 240 243 235 240 243 229 239 240 233 239 239 229 238 235 229 239 238 230 238 241 231 235 238 230 236 236 226 238 234 230 241 243 234 242 244 233 243 244 235 239 240 237 236 241 234 238 239 231 237 233 228 234 230 217 226 225 213 220 226 209 217 220 211 219 222 215 223 225 221 231 233 225 235 237 231 239 242 233 238 242 231 236 239 211 221 222 199 214 211 208 220 220 198 210 208 207 223 220 203 217 217 207 218 222 214 226 226 221 232 228 189 200 196 166 176 175 175 187 185 137 154 146 143 159 149 149 169 158 155 173 161 154 170 159 168 178 170 188 199 195 208 217 214 216 222 222 208 216 218 204 212 214 197 206 203 189 199 198 191 198 191 190 199 194 191 201 200 196 205 204 201 206 202 199 206 199 206 211 205 225 230 224 244 244 246 238 242 245 237 240 245 237 240 245 236 241 245 236 245 244 233 239 235 232 238 236 234 240 240 230 236 236 218 227 226 210 219 218 209 215 215 210 216 216 215 221 221 222 226 227 228 232 235 202 210 212 199 214 211 210 229 225 186 202 199 196 205 204 210 216 216 216 225 224 222 230 232 217 227 228 189 203 204 199 215 215 198 209 211 137 157 148 147 163 153 160 171 163 182 189 181 204 211 204 219 224 217 218 223 217 218 222 221 217 223 221 214 220 218 213 219 217 210 219 216 207 218 214 205 215 214 207 215 217 212 216 219 212 221 220 186 195 190 167 167 159 181 172 163 198 191 181 212 207 203 233 231 232 239 243 244 236 241 244 229 241 241 224 236 236 222 233 229 219 228 223 198 209 203 168 179 173 160 171 163 154 165 157 148 158 150 152 162 154 167 173 169 196 202 200 222 230 232 225 235 236 219 233 233 203 222 220 202 218 217 212 222 223 234 242 244 230 238 240 230 240 241 191 205 205 169 187 187 223 241 241 200 216 216 203 209 205 200 212 210 213 222 219 226 234 236 236 240 243 240 246 246 239 243 246 236 244 247 237 245 247 238 244 244 233 242 241 233 243 242 238 246 248 226 236 237 207 216 215 201 211 212 195 211 208 158 176 164 147 149 136 188 175 166 195 187 176 180 176 165 198 188 176 205 208 197 188 198 190 174 189 184 170 187 179 171 184 174 166 179 170 158 170 166 149 162 155 152 165 158 156 169 162 167 178 172 189 200 196 209 218 215 224 233 232 232 235 240 237 242 246 227 235 238 220 231 233 220 231 233 227 237 239 230 238 241 228 238 240 233 243 245 195 206 208 176 190 190 214 233 229 189 208 204 242 244 243 230 244 245 240 249 254 237 247 249 240 248 250 236 241 245 233 243 244 236 244 246 233 243 244 226 238 238 221 233 231 224 236 234 227 239 237 225 235 234 220 229 228 216 220 223 194 214 213 155 189 175 182 196 181 222 224 213 230 235 228 215 206 201 181 176 157 181 182 168 185 191 181 180 193 186 189 204 201 200 211 207 202 208 206 201 210 209 207 216 215 213 222 221 219 227 229 226 234 236 235 240 244 237 242 246 234 239 243 234 237 244 234 237 242 233 238 242 232 240 243 231 239 242 234 239 243 234 237 242 232 237 241 228 238 239 221 233 233 213 227 227 209 225 224 204 218 218 224 242 246 221 235 235 227 244 236 233 245 245 230 244 247 234 245 241 238 244 240 232 242 241 224 238 238 229 240 236 232 242 241 233 243 242 230 239 236 229 237 239 234 242 244 244 248 251 211 216 219 122 139 131 166 163 144 226 221 202 235 246 242 237 242 248 205 204 199 194 199 193 224 236 234 233 241 243 234 242 244 235 242 248 237 242 246 236 242 242 235 241 241 236 241 244 234 242 244 233 241 244 234 239 243 234 239 243 234 239 243 232 240 243 233 238 242 232 237 241 233 238 242 232 237 241 233 238 242 235 238 243 233 236 241 229 239 240 229 239 240 227 239 239 228 238 239 229 234 237 242 215 196 237 252 255 235 245 246 237 246 241 239 249 248 241 243 242 242 243 245 239 244 247 238 243 246 236 245 244 237 246 245 239 245 245 235 244 243 236 239 244 236 242 242 235 244 241 234 233 238 180 202 199 176 189 172 209 194 173 227 209 189 246 214 191 218 170 148 199 180 173 231 235 234 241 240 245 233 239 239 230 240 241 235 243 245 236 240 243 235 239 242 234 238 241 234 239 242 234 239 242 234 239 243 234 239 243 234 239 243 234 239 243 233 238 242 234 239 243 233 238 242 233 238 242 233 238 242 233 238 242 233 238 242 232 237 241 233 238 242 228 238 239 228 240 240 229 237 239 237 173 129 233 214 199 239 242 247 241 242 244 242 241 237 240 244 245 238 246 249 240 244 247 239 244 247 236 244 246 238 244 244 235 244 241 239 243 246 237 241 244 238 238 246 238 241 248 238 242 245 234 249 246 228 246 246 218 225 217 210 193 173 229 170 136 210 152 114 216 192 180 238 239 244 235 244 249 234 243 242 231 242 238 233 242 241 234 239 243 235 240 244 234 239 243 235 240 244 232 240 243 233 238 242 234 239 243 234 239 243 234 239 243 232 240 243 233 238 242 234 239 243 234 239 243 234 237 242 233 238 242 233 238 242 233 238 241 233 238 242 231 236 240 231 236 240 234 237 242 236 187 131 234 173 129 229 212 196 239 244 248 240 245 249 236 246 247 237 247 248 235 245 244 235 245 244 234 244 243 235 245 244 238 244 244 236 244 246 236 245 244 235 242 248 238 241 250 235 240 243 236 242 240 237 240 247 240 243 252 238 239 243 235 225 216 234 222 200 233 240 232 234 241 247 228 239 245 237 236 244 239 239 247 236 241 244 234 239 242 235 240 243 235 240 243 236 241 245 235 240 244 234 239 243 235 240 243 235 239 242 234 237 242 234 239 243 233 238 242 234 239 243 234 239 243 234 239 243 231 239 242 230 238 241 234 239 245 233 238 242 234 239 243 227 237 238 224 236 236 239 209 147 244 183 118 233 180 126 239 221 197 240 244 243 243 243 251 235 247 245 238 247 244 240 246 246 237 248 244 237 243 243 237 242 245 239 243 246 238 243 247 238 242 243 236 240 239 234 246 244 236 244 246 237 238 242 237 243 243 234 245 241 236 244 247 238 246 248 235 243 245 234 239 242 241 240 245 238 239 243 233 241 243 232 240 242 235 240 243 235 240 243 234 239 242 235 240 243 236 241 244 234 239 242 234 239 243 234 239 243 234 239 243 234 239 243 234 239 243 233 238 242 234 239 243 235 240 244 234 239 243 233 238 242 233 238 242 231 239 242 234 239 243 225 235 236 214 226 226 245 210 146 243 186 115 241 170 104 239 174 118 240 208 187 241 246 250 241 245 248 242 243 248 239 245 243 237 245 247 240 246 246 238 244 244 235 245 244 236 245 242 236 244 246 237 245 247 236 240 243 236 241 244 234 244 245 232 238 238 239 243 244 232 243 245 237 242 245 235 240 243 237 241 244 235 240 243 230 240 241 234 242 244 236 240 243 235 240 243 236 241 244 235 240 243 235 240 243 235 240 243 235 240 243 235 240 243 234 239 242 234 239 243 234 239 243 234 239 243 234 239 243 234 239 243 233 238 242 233 238 242 234 239 243 233 238 242 233 238 242 233 238 242 230 238 240 226 236 237 240 218 168 239 205 142 239 173 97 243 152 63 235 148 69 241 186 155 247 236 242 239 253 255 242 243 245 236 247 241 237 246 243 240 243 248 237 246 243 238 244 244 239 243 246 239 244 247 237 243 243 240 244 245 236 241 244 236 241 244 236 244 246 234 239 243 236 241 244 235 240 243 236 241 244 236 241 244 236 241 244 232 240 242 234 238 241 234 239 242 235 240 243 236 241 244 235 240 243 235 240 243 236 241 244 235 240 243 235 240 243 234 239 243 233 238 242 234 239 243 234 239 243 234 239 243 234 239 243 234 239 243 234 239 243 233 238 242 231 239 242 233 238 242 235 236 241 235 240 243 240 231 202 244 216 168 243 202 123 243 172 82 243 139 50 246 127 43 246 171 131 238 237 235 236 249 255 242 247 243 237 241 250 244 243 249 243 242 240 238 243 246 241 242 244 240 244 245 238 244 244 239 243 242 240 245 248 232 242 244 236 244 246 238 243 246 235 240 243 231 239 241 236 244 246 236 241 244 232 240 242 233 241 243 236 241 244 235 240 243 234 239 242 235 240 243 235 240 243 234 239 242 235 240 243 234 239 242 236 241 244 234 239 243 234 239 243 235 240 244 233 238 242 232 237 241 234 239 243 235 240 244 233 238 242 233 238 242 232 237 241 233 236 241 233 238 242 232 240 242 248 248 246 244 242 221 242 229 185 237 208 148 245 178 108 241 141 55 242 125 32 239 157 107 240 226 215 240 249 248 240 243 250 242 241 246 238 249 245 237 249 249 240 244 247 239 243 246 236 245 244 237 245 247 231 241 240 213 225 223 224 232 234 233 241 243 236 241 244 237 242 245 236 241 244 235 240 243 233 243 244 231 241 242 235 240 243 235 240 243 235 240 243 235 240 243 234 239 242 234 239 242 235 240 243 235 240 243 236 241 244 235 240 244 233 238 242 235 240 244 235 240 244 231 236 240 233 238 242 235 240 244 234 239 243 234 239 243 233 238 242 233 238 242 230 238 241 226 234 237 